<svg xmlns="http://www.w3.org/2000/svg" viewBox="0 0 100 100" width="100" height="100">
<path fill="#c7ede6" d="M87.22 56.71A15.5 15.5 0 0 0 79 35.02V35a21 21 0 0 0-41.31-5.24 14.98 14.98 0 0 0-19.58 12.5A11.5 11.5 0 0 0 20.5 65l.53-.02c0 .17-.03.34-.03.52a20.5 20.5 0 0 0 36.43 12.89 11.95 11.95 0 0 0 19.24-2.9 11 11 0 0 0 10.55-18.77z"/>
<path fill="#fdfcef" d="M77.5 60.5v.5h3v-.5H86a4.48 4.48 0 0 0 .44-8.95c.03-.19.06-.36.06-.55a4.5 4.5 0 0 0-8.03-2.76 4.99 4.99 0 1 0-9.78 1.54 3.48 3.48 0 0 0-6.14 1.77c-.19-.02-.36-.05-.55-.05a4.5 4.5 0 0 0 0 9h15.5z"/>
<path fill="#472b29" d="M73.5 43a5.5 5.5 0 0 0-5.5 5.5v.05A4 4 0 0 0 62.14 51L62 51a5 5 0 0 0 0 10h15.5a.5.5 0 0 0 0-1H62a4 4 0 0 1 0-8c.12 0 .23.02.34.03l.14.02h.07a.5.5 0 0 0 .5-.43A3 3 0 0 1 66 49c.89 0 1.72.4 2.3 1.1a.5.5 0 0 0 .61.13.5.5 0 0 0 .26-.58A4.5 4.5 0 0 1 73.5 44a4.49 4.49 0 0 1 4.47 4.26.5.5 0 0 0 .9.29A3.97 3.97 0 0 1 82 47a4 4 0 0 1 4 4c0 .12-.02.23-.03.34l-.02.14a.5.5 0 0 0 .44.56c2.06.2 3.61 1.9 3.61 3.96a4 4 0 0 1-4 4h-5.5a.5.5 0 0 0 0 1H86a5 5 0 0 0 5-5c0-2.4-1.69-4.41-4-4.88V51a5 5 0 0 0-8.18-3.84A5.49 5.49 0 0 0 73.5 43z"/>
<path fill="#472b29" d="M72 50a3 3 0 0 0-2.91 2.34 2.38 2.38 0 0 0-3.56 1.73 2.94 2.94 0 0 0-3.5 2.66c-.02.14.08.26.22.27h.02c.13 0 .24-.1.25-.23a2.44 2.44 0 0 1 2.42-2.27c.23 0 .47.04.73.13h.07c.06 0 .11-.01.16-.05.06-.04.1-.13.1-.2a1.87 1.87 0 0 1 3.1-1.4c.05.03.11.06.17.06l.1-.02a.25.25 0 0 0 .15-.22A2.5 2.5 0 0 1 72 50.5a2.46 2.46 0 0 1 .75.12.25.25 0 0 0 .07-.5c-.3-.08-.56-.12-.82-.12zm13.88 1.5a3 3 0 0 0-2.87 2.18.25.25 0 1 0 .48.14 2.5 2.5 0 0 1 2.77-1.79c.12 0 .23-.09.25-.21a.25.25 0 0 0-.22-.29 3.06 3.06 0 0 0-.4-.03z"/>
<path fill="#fff" d="M15.5 51h-10a.5.5 0 0 1 0-1h10a.5.5 0 0 1 0 1zm3 0h-1a.5.5 0 0 1 0-1h1a.5.5 0 0 1 0 1zm5 2h-9a.5.5 0 0 1 0-1h9a.5.5 0 0 1 0 1zm-11 0h-1a.5.5 0 0 1 0-1h1a.5.5 0 0 1 0 1zm-3 0h-2a.5.5 0 0 1 0-1h2a.5.5 0 0 1 0 1zm6 2h-2a.5.5 0 0 1 0-1h2a.5.5 0 0 1 0 1zm3-9h-1a.5.5 0 0 0 0 1h1a.5.5 0 0 0 0-1zm0 2h-5a.5.5 0 0 0 0 1h5a.5.5 0 0 0 0-1zm5 2h-3a.5.5 0 0 0 0 1h3a.5.5 0 0 0 0-1zM72.5 24h-10a.5.5 0 0 1 0-1h10a.5.5 0 0 1 0 1zm4 0h-2a.5.5 0 0 1 0-1h2a.5.5 0 0 1 0 1zm5 2h-10a.5.5 0 0 1 0-1h10a.5.5 0 0 1 0 1zm-12 0h-1a.5.5 0 0 1 0-1h1a.5.5 0 0 1 0 1zm-3.03 0H64.5a.5.5 0 0 1 0-1h1.97a.5.5 0 0 1 0 1zm9.03-4h-5a.5.5 0 0 1 0-1h5a.5.5 0 0 1 0 1zm-3 6h-2a.5.5 0 0 1 0-1h2a.5.5 0 0 1 0 1z"/>
<path fill="#a3a3cd" d="M52 26.75a23.25 23.25 0 1 0 0 46.5 23.25 23.25 0 1 0 0-46.5Z"/>
<path fill="#472b29" d="M52 73.95c-13.2 0-23.95-10.74-23.95-23.95S38.79 26.05 52 26.05 75.95 36.79 75.95 50 65.21 73.95 52 73.95zm0-46.5c-12.43 0-22.55 10.12-22.55 22.55S39.57 72.55 52 72.55 74.55 62.44 74.55 50 64.43 27.45 52 27.45z"/>
<path fill="#565fa1" d="M52 30.5a19.5 19.5 0 1 0 0 39 19.5 19.5 0 1 0 0-39Z"/>
<path fill="#472b29" d="M70.62 44.99a.5.5 0 0 1-.47-.36 18.13 18.13 0 0 0-1.68-3.85.5.5 0 0 1 .18-.68.5.5 0 0 1 .68.18 19.67 19.67 0 0 1 1.77 4.06.5.5 0 0 1-.48.65z"/>
<path fill="#472b29" d="M52 70.03a20.03 20.03 0 0 1-20.04-19.97 20.03 20.03 0 0 1 35.88-12.24.5.5 0 0 1-.8.62A19.08 19.08 0 0 0 52 31.09c-10.48 0-19.02 8.5-19.02 18.97S41.5 69.03 52 69.03a19.02 19.02 0 0 0 18.82-21.82.5.5 0 0 1 1-.15A20.03 20.03 0 0 1 52 70.03z"/>
<path fill="#fdfcef" d="M36.5 73.5H40a3.49 3.49 0 0 0 .45-6.95c.02-.18.05-.36.05-.55a3.5 3.5 0 0 0-6.09-2.34 4 4 0 0 0-7.91.84c0 .2.03.37.06.56a2.47 2.47 0 0 0-4.01 1.5A3.5 3.5 0 1 0 22 73.5h7.5v.5h7v-.5z"/>
<path fill="#472b29" d="M38.25 69a.25.25 0 0 1-.25-.25c0-1.22 1-2.22 2.22-2.22.03.01.74 0 1.24.14a.25.25 0 0 1-.13.48 5.04 5.04 0 0 0-1.11-.12c-.95 0-1.72.77-1.72 1.72 0 .14-.11.25-.25.25zm-6.75 4a.5.5 0 1 0 0 1 .5.5 0 1 0 0-1z"/>
<path fill="#472b29" d="M40 74h-3.5a.5.5 0 0 1 0-1H40a3 3 0 0 0 .38-5.96.5.5 0 0 1-.43-.57c.02-.16.05-.31.05-.47a3 3 0 0 0-3-3c-.85 0-1.64.35-2.22 1a.5.5 0 0 1-.86-.23 3.5 3.5 0 0 0-6.92.73c0 .14.02.28.04.42.03.2-.06.44-.24.54-.18.1-.4.12-.56-.01-.36-.3-.8-.45-1.24-.45a2 2 0 0 0-1.96 1.64.5.5 0 0 1-.57.4c-.16-.02-.31-.04-.47-.04a3 3 0 0 0 0 6h7.5a.5.5 0 0 1 0 1H22a4 4 0 1 1 .17-8 3 3 0 0 1 3.84-1.82 4.5 4.5 0 0 1 8.64-1.4A3.98 3.98 0 0 1 41 66.13 4 4 0 0 1 40 74z"/>
<path fill="#472b29" d="M34.5 73h-1a.5.5 0 0 0 0 1h1a.5.5 0 0 0 0-1z"/>
<path fill="#fefdef" d="M63.54 41.83c.28-1.58.12-3.5-.53-5.42-3.21 0-5.7 2.2-6.12 2.6h-9.21c-.43-.4-2.9-2.6-6.13-2.6a11.63 11.63 0 0 0-.6 4.94A9 9 0 0 0 47 57h1.84c-1.44.66-2.49 2-2.75 3.62-1.62.16-3.58.01-4.53-1.41-1.77-2.66-2.65-2.66-3.54-2.66-.88 0-.88.89 0 1.77.89.89.89.89 1.77 2.66.73 1.46 2.62 3.1 6.22 2.66v3.33c0 .65.02 1.13.25 1.7 2.17.75 6.3 1.3 11.42.03.2-.54.33-1.12.33-1.73v-5.58a4.84 4.84 0 0 0-2.83-4.4H57a9 9 0 0 0 6.54-15.16z"/>
<path fill="#472b29" d="M51.7 69.96c-2.91 0-4.88-.57-5.61-.82a.5.5 0 0 1-.3-.28 4.53 4.53 0 0 1-.29-1.89V64.2c-4.17.3-5.77-2.19-6.17-2.99-.84-1.7-.84-1.7-1.67-2.52-.69-.69-.96-1.43-.73-2 .17-.4.56-.63 1.08-.63 1.2 0 2.18.21 3.96 2.88.75 1.13 2.35 1.3 3.7 1.22a5.32 5.32 0 0 1 1.53-2.65H47a9.51 9.51 0 0 1-6.57-16.35c-.13-1.53.09-3.21.65-4.9a.5.5 0 0 1 .47-.34c3.13 0 5.58 1.94 6.32 2.6h8.83c.74-.66 3.19-2.6 6.31-2.6.22 0 .41.14.48.35.62 1.86.83 3.77.58 5.41A9.51 9.51 0 0 1 57 57.5h-.2c1.06 1 1.7 2.4 1.7 3.9v5.57c0 .63-.12 1.27-.36 1.9a.5.5 0 0 1-.35.31c-2.32.58-4.37.78-6.1.78zm-5.06-1.7c1.34.43 5.16 1.33 10.65.02.14-.44.21-.88.21-1.3V61.4c0-1.7-1-3.24-2.54-3.94a.5.5 0 0 1 .2-.96H57a8.51 8.51 0 0 0 6.18-14.33.5.5 0 0 1-.13-.43c.26-1.43.11-3.13-.4-4.82-2.83.16-5 2.05-5.42 2.44a.5.5 0 0 1-.34.14h-9.21a.5.5 0 0 1-.35-.14 9.3 9.3 0 0 0-5.42-2.44 10.88 10.88 0 0 0-.46 4.37.5.5 0 0 1-.16.43A8.51 8.51 0 0 0 47 56.5h1.84a.5.5 0 0 1 .21.95 4.32 4.32 0 0 0-2.47 3.25.5.5 0 0 1-.44.41c-2.4.25-4.12-.32-5-1.62-1.62-2.44-2.35-2.44-3.12-2.44-.12 0-.17.03-.17.03-.02.06.06.42.53.89.94.94.97 1.01 1.86 2.79.34.68 1.77 2.88 5.7 2.38a.5.5 0 0 1 .56.5v3.33c.01.53.02.9.15 1.3z"/>
<path fill="#fefdef" d="M63.1 50.9c-.85 1.9-2.72 3.46-6.02 3.73"/>
<path fill="#472b29" d="M57.08 54.88a.25.25 0 0 1-.02-.5c3.6-.3 5.15-2.1 5.8-3.58.07-.12.21-.18.34-.12.12.06.18.2.12.33-1.01 2.25-3.22 3.63-6.22 3.86h-.02z"/>
<path fill="#fefdef" d="M63.6 47.16a7 7 0 0 1-.04 2.22"/>
<path fill="#472b29" d="M63.56 49.63h-.04a.25.25 0 0 1-.2-.3c.12-.68.13-1.42.02-2.13a.25.25 0 0 1 .21-.28c.14-.02.27.07.29.2.11.78.1 1.55-.03 2.3a.25.25 0 0 1-.25.21z"/>
<path fill="#fefdef" d="M61.82 43.82c.6.43 1.08 1.12 1.4 1.95"/>
<path fill="#472b29" d="M63.22 46.02c-.1 0-.19-.07-.23-.16a3.97 3.97 0 0 0-1.32-1.84.25.25 0 0 1 .3-.4 4.47 4.47 0 0 1 1.49 2.05.25.25 0 0 1-.24.34z"/>
</svg>